<svg width="101" height="92" viewBox="0 0 101 92" fill="none" xmlns="http://www.w3.org/2000/svg">
<path d="M97.0005 91.999L100.33 80.9424L89.0897 83.5876L97.0005 91.999ZM0.000528507 0.999051C0.000528015 1.99905 0.000482835 1.99905 0.000438612 1.99905C0.000427002 1.99905 0.000385127 1.99905 0.000360559 1.99905C0.000312727 1.99905 0.000271634 1.99905 0.000239805 1.99905C0.000173579 1.99905 0.000139357 1.99905 0.00013453 1.99905C0.000126225 1.99905 0.000240717 1.99905 0.000477965 1.99905C0.000952504 1.99905 0.0019168 1.99905 0.00337051 1.99906C0.00627657 1.99907 0.0111362 1.99909 0.0179305 1.99913C0.0315204 1.99921 0.0528527 1.99939 0.0817881 1.99974C0.139659 2.00046 0.227942 2.00193 0.345526 2.0049C0.580701 2.01085 0.933051 2.02285 1.39371 2.04705L1.44616 1.04842L1.49861 0.0498016C1.01921 0.0246226 0.648745 0.0119351 0.396118 0.00554222C0.269801 0.00234706 0.172937 0.000724107 0.106638 -0.000100614C0.0734872 -0.000512442 0.0479767 -0.000724188 0.0302465 -0.000834122C0.0213802 -0.000887698 0.0144601 -0.000917282 0.00950136 -0.000932378C0.0070213 -0.000939251 0.00503353 -0.000944588 0.00353712 -0.000946631C0.00278894 -0.000947632 0.0021639 -0.000948178 0.0016621 -0.000948187C0.0014112 -0.000948191 0.00119239 -0.000949473 0.0010031 -0.000949209C0.000908482 -0.000949056 0.000821862 -0.000949244 0.000741939 -0.00094838C0.000702673 -0.000948602 0.000649406 -0.000948884 0.000629751 -0.000949016C0.00057757 -0.000948278 0.000528999 -0.000949385 0.000528507 0.999051ZM4.42952 1.27992L4.33034 2.27499C5.2002 2.36169 6.18767 2.47563 7.28041 2.62534L7.41615 1.6346L7.55189 0.643854C6.43383 0.490672 5.42196 0.373888 4.5287 0.284854L4.42952 1.27992ZM10.3516 2.08635L10.1835 3.07213C11.1022 3.22872 12.0716 3.40815 13.0868 3.61373L13.2853 2.63363L13.4838 1.65352C12.4477 1.44371 11.458 1.26052 10.5196 1.10057L10.3516 2.08635ZM16.2045 3.27061L15.9768 4.24433C16.9058 4.46161 17.8647 4.6999 18.8505 4.96123L19.1068 3.99462L19.363 3.028C18.3578 2.76153 17.3799 2.51851 16.4323 2.29688L16.2045 3.27061ZM21.9919 4.80465L21.7077 5.76339C22.6304 6.03698 23.5723 6.33044 24.5314 6.6452L24.8432 5.69506L25.155 4.74492C24.1773 4.42402 23.217 4.12484 22.2762 3.8459L21.9919 4.80465ZM27.6527 6.66201L27.3138 7.60281C28.2232 7.93048 29.1454 8.27728 30.0788 8.64434L30.4448 7.71372L30.8107 6.7831C29.8591 6.40885 28.9189 6.05527 27.9917 5.72121L27.6527 6.66201ZM33.2182 8.85127L32.8253 9.77084C33.7172 10.1519 34.6175 10.5517 35.5249 10.9711L35.9444 10.0633L36.364 9.15559C35.4386 8.72794 34.5206 8.32029 33.6111 7.93169L33.2182 8.85127ZM38.6269 11.3508L38.1811 12.246C39.0546 12.6811 39.9334 13.1346 40.8163 13.6074L41.2884 12.7258L41.7604 11.8443C40.8599 11.3621 39.9636 10.8995 39.0727 10.4557L38.6269 11.3508ZM43.8972 14.1729L43.3992 15.0401C44.2417 15.5239 45.0869 16.0256 45.9338 16.5458L46.4572 15.6938L46.9807 14.8417C46.1167 14.311 45.2545 13.7992 44.3951 13.3057L43.8972 14.1729ZM48.9923 17.304L48.4435 18.14C49.2537 18.6719 50.0647 19.2213 50.8756 19.7889L51.449 18.9696L52.0224 18.1504C51.1951 17.5713 50.3677 17.0107 49.541 16.4681L48.9923 17.304ZM53.8728 20.7208L53.275 21.5225C54.0572 22.1056 54.8385 22.7062 55.6182 23.3247L56.2396 22.5413L56.8611 21.7579C56.0656 21.1268 55.2685 20.5141 54.4705 19.9191L53.8728 20.7208ZM58.5452 24.427L57.9006 25.1915C58.65 25.8234 59.3973 26.4724 60.1417 27.1392L60.8089 26.3943L61.4761 25.6494C60.7167 24.9692 59.9544 24.3071 59.1898 23.6625L58.5452 24.427ZM62.9907 28.4073L62.3018 29.1322C63.0147 29.8097 63.7243 30.5041 64.4301 31.2158L65.1402 30.5117L65.8503 29.8076C65.1305 29.0817 64.4067 28.3734 63.6795 27.6824L62.9907 28.4073ZM67.194 32.644L66.4639 33.3272C67.1362 34.0458 67.8045 34.7809 68.4681 35.5329L69.2179 34.8712L69.9677 34.2095C69.2912 33.4429 68.6098 32.6934 67.9242 31.9607L67.194 32.644ZM71.1443 37.1176L70.376 37.7578C71.0067 38.5145 71.6325 39.2874 72.253 40.0766L73.0391 39.4585L73.8252 38.8405C73.193 38.0363 72.5552 37.2487 71.9125 36.4774L71.1443 37.1176ZM74.8343 41.8078L74.0315 42.404C74.6191 43.1953 75.2014 44.0021 75.7779 44.8247L76.5968 44.2508L77.4157 43.6769C76.8287 42.8392 76.2357 42.0176 75.6371 41.2116L74.8343 41.8078ZM78.2609 46.6941L77.4271 47.2461C77.9699 48.0662 78.5071 48.9013 79.0381 49.7516L79.8863 49.2218L80.7345 48.6921C80.1941 47.8269 79.6474 46.977 79.0948 46.1422L78.2609 46.6941ZM81.4249 51.7572L80.5635 52.2651C81.0612 53.1092 81.5529 53.9675 82.0383 54.8404L82.9122 54.3544L83.7862 53.8683C83.2926 52.9808 82.7926 52.1079 82.2863 51.2493L81.4249 51.7572ZM84.3301 56.9796L83.4445 57.444C83.8971 58.3072 84.3437 59.1838 84.7838 60.0741L85.6803 59.6309L86.5767 59.1878C86.1295 58.2832 85.6758 57.3924 85.2157 56.5152L84.3301 56.9796ZM86.9832 62.3469L86.0765 62.7688C86.4848 63.646 86.8869 64.536 87.2827 65.4389L88.1986 65.0375L89.1145 64.636C88.7127 63.7194 88.3044 62.8158 87.8898 61.9249L86.9832 62.3469ZM89.3752 67.8056L88.4506 68.1865C88.8215 69.0868 89.1862 69.9995 89.5444 70.9246L90.477 70.5635L91.4095 70.2024C91.0462 69.264 90.6762 68.3382 90.2998 67.4246L89.3752 67.8056ZM91.5232 73.3518L90.5834 73.6933C90.922 74.6249 91.2541 75.5687 91.5795 76.5248L92.5262 76.2025L93.4728 75.8803C93.143 74.9114 92.8064 73.9547 92.4631 73.0102L91.5232 73.3518ZM93.4473 78.998L92.4946 79.3017C92.7933 80.2388 93.0858 81.1872 93.3717 82.1472L94.3301 81.8618L95.2885 81.5763C94.999 80.6041 94.7027 79.6435 94.4001 78.6942L93.4473 78.998ZM95.159 84.7429L94.1954 85.0105C94.4551 85.9455 94.7087 86.8912 94.956 87.8476L95.9241 87.5972L96.8923 87.3468C96.642 86.379 96.3854 85.4219 96.1225 84.4754L95.159 84.7429ZM97.0005 91.999L100.33 80.9424L89.0897 83.5876L97.0005 91.999ZM0.000528507 0.999051C0.000528015 1.99905 0.000482835 1.99905 0.000438612 1.99905C0.000427002 1.99905 0.000385127 1.99905 0.000360559 1.99905C0.000312727 1.99905 0.000271634 1.99905 0.000239805 1.99905C0.000173579 1.99905 0.000139357 1.99905 0.00013453 1.99905C0.000126225 1.99905 0.000240717 1.99905 0.000477965 1.99905C0.000952504 1.99905 0.0019168 1.99905 0.00337051 1.99906C0.00627657 1.99907 0.0111362 1.99909 0.0179305 1.99913C0.0315204 1.99921 0.0528527 1.99939 0.0817881 1.99974C0.139659 2.00046 0.227942 2.00193 0.345526 2.0049C0.580701 2.01085 0.933051 2.02285 1.39371 2.04705L1.44616 1.04842L1.49861 0.0498016C1.01921 0.0246226 0.648745 0.0119351 0.396118 0.00554222C0.269801 0.00234706 0.172937 0.000724107 0.106638 -0.000100614C0.0734872 -0.000512442 0.0479767 -0.000724188 0.0302465 -0.000834122C0.0213802 -0.000887698 0.0144601 -0.000917282 0.00950136 -0.000932378C0.0070213 -0.000939251 0.00503353 -0.000944588 0.00353712 -0.000946631C0.00278894 -0.000947632 0.0021639 -0.000948178 0.0016621 -0.000948187C0.0014112 -0.000948191 0.00119239 -0.000949473 0.0010031 -0.000949209C0.000908482 -0.000949056 0.000821862 -0.000949244 0.000741939 -0.00094838C0.000702673 -0.000948602 0.000649406 -0.000948884 0.000629751 -0.000949016C0.00057757 -0.000948278 0.000528999 -0.000949385 0.000528507 0.999051ZM4.42952 1.27992L4.33034 2.27499C5.2002 2.36169 6.18767 2.47563 7.28041 2.62534L7.41615 1.6346L7.55189 0.643854C6.43383 0.490672 5.42196 0.373888 4.5287 0.284854L4.42952 1.27992ZM10.3516 2.08635L10.1835 3.07213C11.1022 3.22872 12.0716 3.40815 13.0868 3.61373L13.2853 2.63363L13.4838 1.65352C12.4477 1.44371 11.458 1.26052 10.5196 1.10057L10.3516 2.08635ZM16.2045 3.27061L15.9768 4.24433C16.9058 4.46161 17.8647 4.6999 18.8505 4.96123L19.1068 3.99462L19.363 3.028C18.3578 2.76153 17.3799 2.51851 16.4323 2.29688L16.2045 3.27061ZM21.9919 4.80465L21.7077 5.76339C22.6304 6.03698 23.5723 6.33044 24.5314 6.6452L24.8432 5.69506L25.155 4.74492C24.1773 4.42402 23.217 4.12484 22.2762 3.8459L21.9919 4.80465ZM27.6527 6.66201L27.3138 7.60281C28.2232 7.93048 29.1454 8.27728 30.0788 8.64434L30.4448 7.71372L30.8107 6.7831C29.8591 6.40885 28.9189 6.05527 27.9917 5.72121L27.6527 6.66201ZM33.2182 8.85127L32.8253 9.77084C33.7172 10.1519 34.6175 10.5517 35.5249 10.9711L35.9444 10.0633L36.364 9.15559C35.4386 8.72794 34.5206 8.32029 33.6111 7.93169L33.2182 8.85127ZM38.6269 11.3508L38.1811 12.246C39.0546 12.6811 39.9334 13.1346 40.8163 13.6074L41.2884 12.7258L41.7604 11.8443C40.8599 11.3621 39.9636 10.8995 39.0727 10.4557L38.6269 11.3508ZM43.8972 14.1729L43.3992 15.0401C44.2417 15.5239 45.0869 16.0256 45.9338 16.5458L46.4572 15.6938L46.9807 14.8417C46.1167 14.311 45.2545 13.7992 44.3951 13.3057L43.8972 14.1729ZM48.9923 17.304L48.4435 18.14C49.2537 18.6719 50.0647 19.2213 50.8756 19.7889L51.449 18.9696L52.0224 18.1504C51.1951 17.5713 50.3677 17.0107 49.541 16.4681L48.9923 17.304ZM53.8728 20.7208L53.275 21.5225C54.0572 22.1056 54.8385 22.7062 55.6182 23.3247L56.2396 22.5413L56.8611 21.7579C56.0656 21.1268 55.2685 20.5141 54.4705 19.9191L53.8728 20.7208ZM58.5452 24.427L57.9006 25.1915C58.65 25.8234 59.3973 26.4724 60.1417 27.1392L60.8089 26.3943L61.4761 25.6494C60.7167 24.9692 59.9544 24.3071 59.1898 23.6625L58.5452 24.427ZM62.9907 28.4073L62.3018 29.1322C63.0147 29.8097 63.7243 30.5041 64.4301 31.2158L65.1402 30.5117L65.8503 29.8076C65.1305 29.0817 64.4067 28.3734 63.6795 27.6824L62.9907 28.4073ZM67.194 32.644L66.4639 33.3272C67.1362 34.0458 67.8045 34.7809 68.4681 35.5329L69.2179 34.8712L69.9677 34.2095C69.2912 33.4429 68.6098 32.6934 67.9242 31.9607L67.194 32.644ZM71.1443 37.1176L70.376 37.7578C71.0067 38.5145 71.6325 39.2874 72.253 40.0766L73.0391 39.4585L73.8252 38.8405C73.193 38.0363 72.5552 37.2487 71.9125 36.4774L71.1443 37.1176ZM74.8343 41.8078L74.0315 42.404C74.6191 43.1953 75.2014 44.0021 75.7779 44.8247L76.5968 44.2508L77.4157 43.6769C76.8287 42.8392 76.2357 42.0176 75.6371 41.2116L74.8343 41.8078ZM78.2609 46.6941L77.4271 47.2461C77.9699 48.0662 78.5071 48.9013 79.0381 49.7516L79.8863 49.2218L80.7345 48.6921C80.1941 47.8269 79.6474 46.977 79.0948 46.1422L78.2609 46.6941ZM81.4249 51.7572L80.5635 52.2651C81.0612 53.1092 81.5529 53.9675 82.0383 54.8404L82.9122 54.3544L83.7862 53.8683C83.2926 52.9808 82.7926 52.1079 82.2863 51.2493L81.4249 51.7572ZM84.3301 56.9796L83.4445 57.444C83.8971 58.3072 84.3437 59.1838 84.7838 60.0741L85.6803 59.6309L86.5767 59.1878C86.1295 58.2832 85.6758 57.3924 85.2157 56.5152L84.3301 56.9796ZM86.9832 62.3469L86.0765 62.7688C86.4848 63.646 86.8869 64.536 87.2827 65.4389L88.1986 65.0375L89.1145 64.636C88.7127 63.7194 88.3044 62.8158 87.8898 61.9249L86.9832 62.3469ZM89.3752 67.8056L88.4506 68.1865C88.8215 69.0868 89.1862 69.9995 89.5444 70.9246L90.477 70.5635L91.4095 70.2024C91.0462 69.264 90.6762 68.3382 90.2998 67.4246L89.3752 67.8056ZM91.5232 73.3518L90.5834 73.6933C90.922 74.6249 91.2541 75.5687 91.5795 76.5248L92.5262 76.2025L93.4728 75.8803C93.143 74.9114 92.8064 73.9547 92.4631 73.0102L91.5232 73.3518ZM93.4473 78.998L92.4946 79.3017C92.7933 80.2388 93.0858 81.1872 93.3717 82.1472L94.3301 81.8618L95.2885 81.5763C94.999 80.6041 94.7027 79.6435 94.4001 78.6942L93.4473 78.998ZM95.159 84.7429L94.1954 85.0105C94.4551 85.9455 94.7087 86.8912 94.956 87.8476L95.9241 87.5972L96.8923 87.3468C96.642 86.379 96.3854 85.4219 96.1225 84.4754L95.159 84.7429Z" fill="white"/>
</svg>
