<svg width="394" height="72" viewBox="0 0 394 72" fill="none" xmlns="http://www.w3.org/2000/svg">
<path d="M1.68216 58.3197C0.859868 58.2191 0.111709 58.8041 0.0111022 59.6264C-0.089504 60.4487 0.495541 61.1969 1.31784 61.2975L1.5 59.8086L1.68216 58.3197ZM393.682 0.000864837L376.523 2.35939L387.145 16.0404L393.682 0.000864837ZM1.5 59.8086L1.31784 61.2975C2.31412 61.4194 3.30953 61.5404 4.30406 61.6604L4.48384 60.1712L4.66361 58.6821C3.67068 58.5622 2.67687 58.4414 1.68216 58.3197L1.5 59.8086ZM10.4356 60.8799L10.2607 62.3696C12.2428 62.6023 14.2213 62.8312 16.1962 63.0562L16.366 61.5658L16.5358 60.0754C14.5643 59.8508 12.5892 59.6224 10.6105 59.3901L10.4356 60.8799ZM22.3347 62.2351L22.1702 63.726C24.1579 63.9453 26.1419 64.1605 28.1222 64.3716L28.2812 62.88L28.4401 61.3885C26.4636 61.1778 24.4832 60.963 22.4992 60.7441L22.3347 62.2351ZM34.2377 63.5034L34.0844 64.9955C36.0779 65.2003 38.0675 65.4007 40.0532 65.5966L40.2005 64.1039L40.3478 62.6111C38.3661 62.4156 36.3805 62.2156 34.3909 62.0112L34.2377 63.5034ZM46.1448 64.6782L46.0037 66.1716C48.003 66.3605 49.9982 66.5449 51.9895 66.7245L52.1242 65.2305L52.259 63.7366C50.2721 63.5574 48.2811 63.3735 46.286 63.1849L46.1448 64.6782ZM58.0793 65.7544L57.9512 67.2489C59.9487 67.4202 61.9421 67.5865 63.9313 67.7478L64.0525 66.2527L64.1738 64.7576C62.1892 64.5967 60.2004 64.4308 58.2074 64.2599L58.0793 65.7544ZM70.0231 66.7226L69.9091 68.2182C71.9032 68.3703 73.8932 68.5173 75.8788 68.6589L75.9855 67.1627L76.0922 65.6665C74.1116 65.5252 72.1266 65.3787 70.1372 65.2269L70.0231 66.7226ZM81.9715 67.5742L81.8725 69.0709C83.866 69.2028 85.8551 69.3292 87.8397 69.4499L87.9308 67.9527L88.0219 66.4555C86.0426 66.3351 84.0588 66.209 82.0705 66.0775L81.9715 67.5742ZM93.9241 68.3009L93.8413 69.7986C95.8398 69.9091 97.8337 70.0138 99.8229 70.1125L99.8973 68.6143L99.9716 67.1162C97.9881 67.0178 95.9999 66.9134 94.007 66.8032L93.9241 68.3009ZM105.881 68.8936L105.815 70.3922C107.818 70.4797 109.817 70.561 111.811 70.636L111.867 69.137L111.923 67.6381C109.936 67.5634 107.943 67.4823 105.946 67.395L105.881 68.8936ZM117.84 69.3428L117.794 70.8421C119.801 70.9049 121.804 70.961 123.802 71.0104L123.839 69.5109L123.876 68.0113C121.885 67.9621 119.889 67.9061 117.887 67.8435L117.84 69.3428ZM129.807 69.6384L129.78 71.1381C131.79 71.1742 133.796 71.2033 135.796 71.2252L135.812 69.7253L135.829 68.2254C133.836 68.2036 131.837 68.1746 129.834 68.1386L129.807 69.6384ZM141.79 69.7693L141.784 71.2693C143.792 71.2767 145.794 71.2768 147.791 71.2692L147.785 69.7692L147.78 68.2692C145.79 68.2768 143.796 68.2767 141.795 68.2693L141.79 69.7693ZM153.771 69.7235L153.788 71.2234C155.793 71.2003 157.792 71.1693 159.785 71.1304L159.756 69.6306L159.727 68.1309C157.741 68.1697 155.75 68.2006 153.753 68.2236L153.771 69.7235ZM165.747 69.4888L165.789 70.9882C167.791 70.9325 169.786 70.8684 171.776 70.7959L171.722 69.2969L171.667 67.7979C169.686 67.8701 167.699 67.9339 165.705 67.9894L165.747 69.4888ZM177.716 69.0521L177.784 70.5505C179.782 70.46 181.775 70.3607 183.761 70.2524L183.679 68.7547L183.598 67.2569C181.621 67.3646 179.638 67.4635 177.648 67.5536L177.716 69.0521ZM189.674 68.3996L189.77 69.8965C191.767 69.7687 193.757 69.6316 195.741 69.4851L195.631 67.9892L195.52 66.4933C193.546 66.639 191.565 66.7754 189.578 66.9027L189.674 68.3996ZM201.616 67.5168L201.742 69.0115C203.738 68.8438 205.727 68.6662 207.709 68.4787L207.568 66.9854L207.427 65.4921C205.455 65.6786 203.476 65.8552 201.491 66.0221L201.616 67.5168ZM213.538 66.3884L213.695 67.8801C215.688 67.6698 217.675 67.4491 219.654 67.2179L219.48 65.728L219.306 64.2381C217.338 64.468 215.362 64.6875 213.38 64.8967L213.538 66.3884ZM225.431 64.9983L225.622 66.4861C227.611 66.2304 229.593 65.9638 231.568 65.6861L231.36 64.2007L231.151 62.7153C229.188 62.9914 227.217 63.2564 225.24 63.5106L225.431 64.9983ZM237.288 63.33L237.515 64.8127C239.499 64.5088 241.475 64.1934 243.444 63.8662L243.198 62.3865L242.952 60.9068C240.996 61.2319 239.032 61.5453 237.061 61.8473L237.288 63.33ZM249.1 61.3661L249.366 62.8425C251.341 62.4875 253.309 62.1204 255.27 61.7409L254.984 60.2682L254.699 58.7956C252.753 59.1725 250.798 59.5371 248.835 59.8897L249.1 61.3661ZM260.856 59.0892L261.162 60.5578C263.128 60.1488 265.085 59.727 267.035 59.2922L266.708 57.8281L266.382 56.3641C264.446 56.7958 262.503 57.2146 260.551 57.6207L260.856 59.0892ZM272.544 56.4816L272.892 57.9407C274.845 57.4747 276.79 56.9953 278.726 56.5022L278.356 55.0486L277.986 53.595C276.064 54.0843 274.134 54.5601 272.196 55.0226L272.544 56.4816ZM284.148 53.5257L284.541 54.9734C286.478 54.4476 288.408 53.9077 290.328 53.3535L289.912 51.9123L289.496 50.4711C287.591 51.0209 285.678 51.5564 283.755 52.078L284.148 53.5257ZM295.653 50.2043L296.093 51.6385C298.012 51.0501 299.922 50.447 301.824 49.8289L301.36 48.4024L300.896 46.9759C299.011 47.5887 297.117 48.1868 295.213 48.7702L295.653 50.2043ZM307.041 46.5013L307.529 47.9195C309.427 47.266 311.315 46.5971 313.194 45.9125L312.681 44.5031L312.167 43.0938C310.305 43.7722 308.433 44.4352 306.552 45.083L307.041 46.5013ZM318.291 42.4015L318.83 43.8013C320.703 43.0803 322.566 42.3432 324.419 41.5899L323.855 40.2003L323.29 38.8107C321.454 39.557 319.608 40.2873 317.752 41.0017L318.291 42.4015ZM329.384 37.8919L329.975 39.2705C331.819 38.48 333.653 37.6727 335.477 36.8487L334.859 35.4817L334.242 34.1147C332.435 34.9308 330.619 35.7302 328.793 36.5132L329.384 37.8919ZM340.295 32.9615L340.939 34.3161C342.751 33.4543 344.552 32.5754 346.344 31.679L345.672 30.3376L345.001 28.9962C343.228 29.8836 341.444 30.7538 339.651 31.607L340.295 32.9615ZM351.002 27.6024L351.7 28.9299C353.476 27.9957 355.241 27.0438 356.996 26.0739L356.27 24.7611L355.545 23.4483C353.808 24.4082 352.061 25.3503 350.304 26.2749L351.002 27.6024ZM361.481 21.8098L362.233 23.1072C363.969 22.1003 365.693 21.0751 367.407 20.0316L366.627 18.7504L365.847 17.4692C364.151 18.5017 362.445 19.5161 360.728 20.5125L361.481 21.8098ZM371.707 15.5827L372.514 16.847C374.205 15.7678 375.884 14.6699 377.553 13.5532L376.719 12.3066L375.885 11.0599C374.234 12.1646 372.572 13.2507 370.9 14.3185L371.707 15.5827ZM381.658 8.92407L382.519 10.1524C384.16 9.00197 385.791 7.83261 387.411 6.64414L386.524 5.43474L385.636 4.22535C384.034 5.40095 382.421 6.55766 380.797 7.69571L381.658 8.92407ZM1.68216 58.3197C0.859868 58.2191 0.111709 58.8041 0.0111022 59.6264C-0.089504 60.4487 0.495541 61.1969 1.31784 61.2975L1.5 59.8086L1.68216 58.3197ZM393.682 0.000864837L376.523 2.35939L387.145 16.0404L393.682 0.000864837ZM1.5 59.8086L1.31784 61.2975C2.31412 61.4194 3.30953 61.5404 4.30406 61.6604L4.48384 60.1712L4.66361 58.6821C3.67068 58.5622 2.67687 58.4414 1.68216 58.3197L1.5 59.8086ZM10.4356 60.8799L10.2607 62.3696C12.2428 62.6023 14.2213 62.8312 16.1962 63.0562L16.366 61.5658L16.5358 60.0754C14.5643 59.8508 12.5892 59.6224 10.6105 59.3901L10.4356 60.8799ZM22.3347 62.2351L22.1702 63.726C24.1579 63.9453 26.1419 64.1605 28.1222 64.3716L28.2812 62.88L28.4401 61.3885C26.4636 61.1778 24.4832 60.963 22.4992 60.7441L22.3347 62.2351ZM34.2377 63.5034L34.0844 64.9955C36.0779 65.2003 38.0675 65.4007 40.0532 65.5966L40.2005 64.1039L40.3478 62.6111C38.3661 62.4156 36.3805 62.2156 34.3909 62.0112L34.2377 63.5034ZM46.1448 64.6782L46.0037 66.1716C48.003 66.3605 49.9982 66.5449 51.9895 66.7245L52.1242 65.2305L52.259 63.7366C50.2721 63.5574 48.2811 63.3735 46.286 63.1849L46.1448 64.6782ZM58.0793 65.7544L57.9512 67.2489C59.9487 67.4202 61.9421 67.5865 63.9313 67.7478L64.0525 66.2527L64.1738 64.7576C62.1892 64.5967 60.2004 64.4308 58.2074 64.2599L58.0793 65.7544ZM70.0231 66.7226L69.9091 68.2182C71.9032 68.3703 73.8932 68.5173 75.8788 68.6589L75.9855 67.1627L76.0922 65.6665C74.1116 65.5252 72.1266 65.3787 70.1372 65.2269L70.0231 66.7226ZM81.9715 67.5742L81.8725 69.0709C83.866 69.2028 85.8551 69.3292 87.8397 69.4499L87.9308 67.9527L88.0219 66.4555C86.0426 66.3351 84.0588 66.209 82.0705 66.0775L81.9715 67.5742ZM93.9241 68.3009L93.8413 69.7986C95.8398 69.9091 97.8337 70.0138 99.8229 70.1125L99.8973 68.6143L99.9716 67.1162C97.9881 67.0178 95.9999 66.9134 94.007 66.8032L93.9241 68.3009ZM105.881 68.8936L105.815 70.3922C107.818 70.4797 109.817 70.561 111.811 70.636L111.867 69.137L111.923 67.6381C109.936 67.5634 107.943 67.4823 105.946 67.395L105.881 68.8936ZM117.84 69.3428L117.794 70.8421C119.801 70.9049 121.804 70.961 123.802 71.0104L123.839 69.5109L123.876 68.0113C121.885 67.9621 119.889 67.9061 117.887 67.8435L117.84 69.3428ZM129.807 69.6384L129.78 71.1381C131.79 71.1742 133.796 71.2033 135.796 71.2252L135.812 69.7253L135.829 68.2254C133.836 68.2036 131.837 68.1746 129.834 68.1386L129.807 69.6384ZM141.79 69.7693L141.784 71.2693C143.792 71.2767 145.794 71.2768 147.791 71.2692L147.785 69.7692L147.78 68.2692C145.79 68.2768 143.796 68.2767 141.795 68.2693L141.79 69.7693ZM153.771 69.7235L153.788 71.2234C155.793 71.2003 157.792 71.1693 159.785 71.1304L159.756 69.6306L159.727 68.1309C157.741 68.1697 155.75 68.2006 153.753 68.2236L153.771 69.7235ZM165.747 69.4888L165.789 70.9882C167.791 70.9325 169.786 70.8684 171.776 70.7959L171.722 69.2969L171.667 67.7979C169.686 67.8701 167.699 67.9339 165.705 67.9894L165.747 69.4888ZM177.716 69.0521L177.784 70.5505C179.782 70.46 181.775 70.3607 183.761 70.2524L183.679 68.7547L183.598 67.2569C181.621 67.3646 179.638 67.4635 177.648 67.5536L177.716 69.0521ZM189.674 68.3996L189.77 69.8965C191.767 69.7687 193.757 69.6316 195.741 69.4851L195.631 67.9892L195.52 66.4933C193.546 66.639 191.565 66.7754 189.578 66.9027L189.674 68.3996ZM201.616 67.5168L201.742 69.0115C203.738 68.8438 205.727 68.6662 207.709 68.4787L207.568 66.9854L207.427 65.4921C205.455 65.6786 203.476 65.8552 201.491 66.0221L201.616 67.5168ZM213.538 66.3884L213.695 67.8801C215.688 67.6698 217.675 67.4491 219.654 67.2179L219.48 65.728L219.306 64.2381C217.338 64.468 215.362 64.6875 213.38 64.8967L213.538 66.3884ZM225.431 64.9983L225.622 66.4861C227.611 66.2304 229.593 65.9638 231.568 65.6861L231.36 64.2007L231.151 62.7153C229.188 62.9914 227.217 63.2564 225.24 63.5106L225.431 64.9983ZM237.288 63.33L237.515 64.8127C239.499 64.5088 241.475 64.1934 243.444 63.8662L243.198 62.3865L242.952 60.9068C240.996 61.2319 239.032 61.5453 237.061 61.8473L237.288 63.33ZM249.1 61.3661L249.366 62.8425C251.341 62.4875 253.309 62.1204 255.27 61.7409L254.984 60.2682L254.699 58.7956C252.753 59.1725 250.798 59.5371 248.835 59.8897L249.1 61.3661ZM260.856 59.0892L261.162 60.5578C263.128 60.1488 265.085 59.727 267.035 59.2922L266.708 57.8281L266.382 56.3641C264.446 56.7958 262.503 57.2146 260.551 57.6207L260.856 59.0892ZM272.544 56.4816L272.892 57.9407C274.845 57.4747 276.79 56.9953 278.726 56.5022L278.356 55.0486L277.986 53.595C276.064 54.0843 274.134 54.5601 272.196 55.0226L272.544 56.4816ZM284.148 53.5257L284.541 54.9734C286.478 54.4476 288.408 53.9077 290.328 53.3535L289.912 51.9123L289.496 50.4711C287.591 51.0209 285.678 51.5564 283.755 52.078L284.148 53.5257ZM295.653 50.2043L296.093 51.6385C298.012 51.0501 299.922 50.447 301.824 49.8289L301.36 48.4024L300.896 46.9759C299.011 47.5887 297.117 48.1868 295.213 48.7702L295.653 50.2043ZM307.041 46.5013L307.529 47.9195C309.427 47.266 311.315 46.5971 313.194 45.9125L312.681 44.5031L312.167 43.0938C310.305 43.7722 308.433 44.4352 306.552 45.083L307.041 46.5013ZM318.291 42.4015L318.83 43.8013C320.703 43.0803 322.566 42.3432 324.419 41.5899L323.855 40.2003L323.29 38.8107C321.454 39.557 319.608 40.2873 317.752 41.0017L318.291 42.4015ZM329.384 37.8919L329.975 39.2705C331.819 38.48 333.653 37.6727 335.477 36.8487L334.859 35.4817L334.242 34.1147C332.435 34.9308 330.619 35.7302 328.793 36.5132L329.384 37.8919ZM340.295 32.9615L340.939 34.3161C342.751 33.4543 344.552 32.5754 346.344 31.679L345.672 30.3376L345.001 28.9962C343.228 29.8836 341.444 30.7538 339.651 31.607L340.295 32.9615ZM351.002 27.6024L351.7 28.9299C353.476 27.9957 355.241 27.0438 356.996 26.0739L356.27 24.7611L355.545 23.4483C353.808 24.4082 352.061 25.3503 350.304 26.2749L351.002 27.6024ZM361.481 21.8098L362.233 23.1072C363.969 22.1003 365.693 21.0751 367.407 20.0316L366.627 18.7504L365.847 17.4692C364.151 18.5017 362.445 19.5161 360.728 20.5125L361.481 21.8098ZM371.707 15.5827L372.514 16.847C374.205 15.7678 375.884 14.6699 377.553 13.5532L376.719 12.3066L375.885 11.0599C374.234 12.1646 372.572 13.2507 370.9 14.3185L371.707 15.5827ZM381.658 8.92407L382.519 10.1524C384.16 9.00197 385.791 7.83261 387.411 6.64414L386.524 5.43474L385.636 4.22535C384.034 5.40095 382.421 6.55766 380.797 7.69571L381.658 8.92407Z" fill="white"/>
</svg>
